<?xml version="1.0" encoding="UTF-8" standalone="no"?>
<svg
   height="137.00215"
   viewBox="0 0 26.535668 36.248486"
   width="100.29229"
   version="1.1"
   id="svg1"
   sodipodi:docname="boat_diver.svg"
   inkscape:version="1.3 (0e150ed6c4, 2023-07-21)"
   xmlns:inkscape="http://www.inkscape.org/namespaces/inkscape"
   xmlns:sodipodi="http://sodipodi.sourceforge.net/DTD/sodipodi-0.dtd"
   xmlns="http://www.w3.org/2000/svg"
   xmlns:svg="http://www.w3.org/2000/svg">
  <defs
     id="defs1" />
  <sodipodi:namedview
     id="namedview1"
     pagecolor="#ffffff"
     bordercolor="#000000"
     borderopacity="0.25"
     inkscape:showpageshadow="2"
     inkscape:pageopacity="0.0"
     inkscape:pagecheckerboard="0"
     inkscape:deskcolor="#d1d1d1"
     inkscape:document-units="mm"
     inkscape:zoom="6.2991712"
     inkscape:cx="50.085954"
     inkscape:cy="68.501075"
     inkscape:window-width="1920"
     inkscape:window-height="1056"
     inkscape:window-x="0"
     inkscape:window-y="24"
     inkscape:window-maximized="1"
     inkscape:current-layer="svg1" />
  <path
     d="m 13.268323,0 c -1.00755,0.0176 -2.05611,0.12302 -3.16911,0.31047 -2.7532,0.86111 -4.891324,2.37244 -6.625255,4.73902 -0.808386,1.17157 -1.206722,2.51889 -1.206722,2.85864 0,0.3339 -0.556498,1.113 -1.224296,1.72222 -1.247727,0.53306 -1.165717,2.02682 -0.82596,3.73732 0.339757,1.70464 0.667798,4.17667 1.335596,4.94405 l 0.913828,1.06027 1.206721,0.2226 c 0.708803,0.31633 1.991678,1.95653 3.350705,2.80007 1.476183,0.91968 3.573303,1.34145 4.616003,1.55819 v 2.39587 C 9.325973,26.47174 6.94182,27.68432 4.956,29.51783 3.801999,30.53125 2.771014,32.32961 2.302384,33.23173 1.833754,34.13384 0.96093,36.19581 1.294829,36.21338 l 0.38662,0.0351 c 0.773239,0 1.534762,10e-6 2.308002,0 l 0.603361,-1.61091 1.224296,-1.90381 1.060275,-0.74981 0.972407,-0.12887 0.07612,2.50717 v 1.88623 l 5.471253,-0.0527 5.27209,-0.0703 v -1.97411 -2.45445 c 1.7105,0.0996 3.46786,1.7808 3.5323,4.50471 0.99584,0.0351 1.76908,0.0351 2.76492,0.0176 l -0.1816,-1.28287 c -0.2226,-0.72638 -0.58579,-2.07955 -1.30045,-3.16911 -1.58162,-2.3783 -4.00092,-4.66873 -7.14075,-5.34824 0,-0.9314 -0.0175,-1.52305 -0.0175,-2.45445 l 1.97996,-0.76738 c 1.20673,-0.62094 2.39588,-1.51719 3.18669,-2.34315 l 2.06783,-2.17913 h 0.80838 c 1.25945,0 1.10129,-0.76153 1.59335,-1.88624 0.31046,-2.07369 0.77909,-4.52228 0.47448,-6.70141 -0.26946,-0.63265 -1.12471,-0.90211 -1.9038,-1.38831 l -0.38662,-1.49962 -0.73224,-1.79251 c -2.40759,-3.94235 -5.77586,-5.48883 -10.13998,-5.40096 z m 1.21258,5.40096 c 3.47372,0.041 6.71898,3.38 6.47295,7.33992 -2.39001,0 -4.24696,0.0761 -6.64283,0.0761 -0.0175,-2.36658 0,-4.80931 0.16402,-7.41021 z m -1.87452,0.0527 c 0.17574,0 0.19917,0.54479 0.19917,1.54062 0.0175,1.03685 0,2.42516 0,4.37584 v 1.44689 H 6.180296 L 6.145136,11.48142 C 6.965238,7.96083 8.541003,6.49051 12.606373,5.45952 Z m -6.443661,8.52907 c 2.050261,0 4.686301,0.0527 6.736561,0.0527 -0.0468,1.9331 -0.0879,3.87206 -0.19917,5.80515 h -1.17158 C 9.033083,19.42467 6.508337,17.09324 6.162722,13.98271 Z m 8.089721,0 h 6.09805 l 0.66194,0.0762 c 0.0527,0.80839 -0.33975,1.88038 -0.67951,2.52475 l -1.02513,1.51719 -1.41175,1.02512 c -0.80838,0.49792 -2.28457,0.82011 -3.49715,0.74981 0.0293,-1.96824 -0.0527,-3.92478 -0.14645,-5.89302 z"
     stroke-width="0.585787"
     id="path1" />
</svg>
