<?xml version="1.0" encoding="UTF-8" standalone="no"?>
<svg
   height="109.2"
   viewBox="0 0 17.168813 28.892499"
   width="64.889999"
   version="1.1"
   id="svg6"
   sodipodi:docname="digit6.svg"
   inkscape:version="1.3 (0e150ed6c4, 2023-07-21)"
   xmlns:inkscape="http://www.inkscape.org/namespaces/inkscape"
   xmlns:sodipodi="http://sodipodi.sourceforge.net/DTD/sodipodi-0.dtd"
   xmlns="http://www.w3.org/2000/svg"
   xmlns:svg="http://www.w3.org/2000/svg">
  <defs
     id="defs6" />
  <sodipodi:namedview
     id="namedview6"
     pagecolor="#ffffff"
     bordercolor="#000000"
     borderopacity="0.25"
     inkscape:showpageshadow="2"
     inkscape:pageopacity="0.0"
     inkscape:pagecheckerboard="0"
     inkscape:deskcolor="#d1d1d1"
     inkscape:document-units="mm"
     inkscape:zoom="7.9029304"
     inkscape:cx="32.456315"
     inkscape:cy="54.6"
     inkscape:window-width="1920"
     inkscape:window-height="1056"
     inkscape:window-x="0"
     inkscape:window-y="24"
     inkscape:window-maximized="1"
     inkscape:current-layer="svg6" />
  <g
     stroke-width="0.79375"
     transform="translate(-69.320831,-50.535417)"
     id="g6">
    <path
       d="m 75.742269,50.535417 -1.436687,1.293812 2.135187,1.912938 h 5.381625 l 2.230437,-2.008188 -1.317624,-1.190625 h -6.596063 -0.396875 z"
       id="path1" />
    <path
       d="m 73.035581,52.940479 -0.960437,0.865188 -1.119188,8.9535 0.968375,0.849312 2.928938,-2.63525 0.714375,-5.7785 z"
       id="path2" />
    <path
       d="m 75.273956,62.862354 -2.111374,1.889126 1.492249,1.317624 h 5.627688 l 1.785937,-1.587499 -1.809749,-1.611313 h -4.984751 z"
       id="path3" />
    <path
       d="m 83.330519,65.592855 -2.50825,2.230437 -1.016,6.992937 1.690687,3.500438 1.658938,-1.484313 1.4605,-10.072687 z"
       id="path4" />
    <path
       d="m 71.924331,65.862729 -1.516062,1.341438 -1.087438,8.802688 1.016001,0.896937 2.849562,-2.555875 0.841375,-6.596063 -2.111375,-1.881187 z"
       id="path5" />
    <path
       d="m 73.607081,76.229105 -2.008187,1.785937 1.563688,1.412875 h 7.096125 l 0.04762,-0.04762 -1.516062,-3.151187 z"
       id="path6" />
  </g>
</svg>
